# xmcd CD database file
#
# Track frame offsets:
#	150
#	61784
#	86318
#	115942
#
# Disc length: 2378 seconds
#
# Revision: 0
# Processed by: cddbd v1.5.2PL0 Copyright (c) Steve Scherf et al.
# Submitted via: CDex 1.70beta2
#
DISCID=25094804
DTITLE=Cobham, Billy - Shabazz
DYEAR=1974
DGENRE=Jazz
TTITLE0=Shabazz
TTITLE1=Taurian Matador (Revised)
TTITLE2=Red baron (Revised)
TTITLE3=Tenth Pinn
EXTD=YEAR: 1974
EXTT0=
EXTT1=
EXTT2=
EXTT3=
PLAYORDER=
